<svg width="87" height="26" viewBox="0 0 87 26" fill="none" xmlns="http://www.w3.org/2000/svg">
<g clip-path="url(#clip0_29_27)">
<path d="M19.6218 1.80314C11.0226 -3.25309 0.0956988 2.92246 0.000622934 12.8924C-0.0922188 22.628 10.2108 28.9162 18.7907 24.6312L9.42299 10.8487L9.42299 19.3798C9.42299 20.325 7.61421 20.325 7.61421 19.3798V7.94324C7.61421 7.19291 9.00801 7.13133 9.40299 7.78357L20.0804 23.8963C28.1014 18.7299 27.993 6.72529 19.6218 1.80314ZM18.4155 17.9485L16.601 15.177V7.58968C16.601 6.88217 18.4155 6.88217 18.4155 7.58968V17.9485Z" fill="#B5B3AD"/>
</g>
<path d="M45.0661 7.36364V19H43.7024L37.3615 9.86364H37.2479V19H35.8388V7.36364H37.2024L43.5661 16.5227H43.6797V7.36364H45.0661ZM51.3629 19.1818C50.522 19.1818 49.7966 18.9962 49.1868 18.625C48.5807 18.25 48.1129 17.7273 47.7834 17.0568C47.4576 16.3826 47.2947 15.5985 47.2947 14.7045C47.2947 13.8106 47.4576 13.0227 47.7834 12.3409C48.1129 11.6553 48.5713 11.1212 49.1584 10.7386C49.7493 10.3523 50.4387 10.1591 51.2266 10.1591C51.6811 10.1591 52.13 10.2348 52.5732 10.3864C53.0163 10.5379 53.4197 10.7841 53.7834 11.125C54.147 11.4621 54.4368 11.9091 54.6527 12.4659C54.8686 13.0227 54.9766 13.7083 54.9766 14.5227V15.0909H48.2493V13.9318H53.6129C53.6129 13.4394 53.5144 13 53.3175 12.6136C53.1243 12.2273 52.8478 11.9223 52.4879 11.6989C52.1319 11.4754 51.7114 11.3636 51.2266 11.3636C50.6925 11.3636 50.2304 11.4962 49.8402 11.7614C49.4538 12.0227 49.1565 12.3636 48.9482 12.7841C48.7398 13.2045 48.6357 13.6553 48.6357 14.1364V14.9091C48.6357 15.5682 48.7493 16.1269 48.9766 16.5852C49.2076 17.0398 49.5277 17.3864 49.9368 17.625C50.3459 17.8598 50.8213 17.9773 51.3629 17.9773C51.7152 17.9773 52.0334 17.928 52.3175 17.8295C52.6054 17.7273 52.8535 17.5758 53.0618 17.375C53.2701 17.1705 53.4311 16.9167 53.5447 16.6136L54.8402 16.9773C54.7038 17.4167 54.4747 17.803 54.1527 18.1364C53.8307 18.4659 53.433 18.7235 52.9595 18.9091C52.486 19.0909 51.9538 19.1818 51.3629 19.1818ZM57.782 10.2727L59.8729 13.8409L61.9638 10.2727H63.5092L60.6911 14.6364L63.5092 19H61.9638L59.8729 15.6136L57.782 19H56.2365L59.0092 14.6364L56.2365 10.2727H57.782ZM69.218 10.2727V11.4091H64.6953V10.2727H69.218ZM66.0135 8.18182H67.3544V16.5C67.3544 16.8788 67.4093 17.1629 67.5192 17.3523C67.6328 17.5379 67.7768 17.6629 67.951 17.7273C68.129 17.7879 68.3165 17.8182 68.5135 17.8182C68.6612 17.8182 68.7824 17.8106 68.8771 17.7955C68.9718 17.7765 69.0476 17.7614 69.1044 17.75L69.3771 18.9545C69.2862 18.9886 69.1593 19.0227 68.9964 19.0568C68.8336 19.0947 68.6271 19.1136 68.3771 19.1136C67.9983 19.1136 67.6271 19.0322 67.2635 18.8693C66.9036 18.7064 66.6044 18.4583 66.3658 18.125C66.1309 17.7917 66.0135 17.3712 66.0135 16.8636V8.18182ZM72.2124 19.0909C71.9321 19.0909 71.6915 18.9905 71.4908 18.7898C71.29 18.589 71.1896 18.3485 71.1896 18.0682C71.1896 17.7879 71.29 17.5473 71.4908 17.3466C71.6915 17.1458 71.9321 17.0455 72.2124 17.0455C72.4927 17.0455 72.7332 17.1458 72.9339 17.3466C73.1347 17.5473 73.2351 17.7879 73.2351 18.0682C73.2351 18.2538 73.1877 18.4242 73.093 18.5795C73.0021 18.7348 72.879 18.8598 72.7237 18.9545C72.5722 19.0455 72.4018 19.0909 72.2124 19.0909ZM75.6413 10.2727H76.9822V19.6364C76.9822 20.1742 76.8894 20.6402 76.7038 21.0341C76.522 21.428 76.2455 21.733 75.8743 21.9489C75.5069 22.1648 75.0429 22.2727 74.4822 22.2727C74.4368 22.2727 74.3913 22.2727 74.3459 22.2727C74.3004 22.2727 74.255 22.2727 74.2095 22.2727V21.0227C74.255 21.0227 74.2966 21.0227 74.3345 21.0227C74.3724 21.0227 74.4141 21.0227 74.4595 21.0227C74.8686 21.0227 75.1679 20.9015 75.3572 20.6591C75.5466 20.4205 75.6413 20.0795 75.6413 19.6364V10.2727ZM76.3004 8.81818C76.0391 8.81818 75.8137 8.72917 75.6243 8.55114C75.4387 8.37311 75.3459 8.15909 75.3459 7.90909C75.3459 7.65909 75.4387 7.44508 75.6243 7.26705C75.8137 7.08902 76.0391 7 76.3004 7C76.5618 7 76.7853 7.08902 76.9709 7.26705C77.1603 7.44508 77.255 7.65909 77.255 7.90909C77.255 8.15909 77.1603 8.37311 76.9709 8.55114C76.7853 8.72917 76.5618 8.81818 76.3004 8.81818ZM85.62 12.2273L84.4155 12.5682C84.3397 12.3674 84.228 12.1723 84.0803 11.983C83.9363 11.7898 83.7393 11.6307 83.4893 11.5057C83.2393 11.3807 82.9193 11.3182 82.5291 11.3182C81.995 11.3182 81.55 11.4413 81.1939 11.6875C80.8416 11.9299 80.6655 12.2386 80.6655 12.6136C80.6655 12.947 80.7867 13.2102 81.0291 13.4034C81.2715 13.5966 81.6503 13.7576 82.1655 13.8864L83.4609 14.2045C84.2412 14.3939 84.8227 14.6837 85.2053 15.0739C85.5878 15.4602 85.7791 15.9583 85.7791 16.5682C85.7791 17.0682 85.6352 17.5152 85.3473 17.9091C85.0632 18.303 84.6655 18.6136 84.1541 18.8409C83.6428 19.0682 83.0481 19.1818 82.37 19.1818C81.4799 19.1818 80.7431 18.9886 80.1598 18.6023C79.5765 18.2159 79.2071 17.6515 79.0518 16.9091L80.3246 16.5909C80.4458 17.0606 80.675 17.4129 81.0121 17.6477C81.353 17.8826 81.7981 18 82.3473 18C82.9723 18 83.4685 17.8674 83.8359 17.6023C84.2071 17.3333 84.3928 17.0114 84.3928 16.6364C84.3928 16.3333 84.2867 16.0795 84.0746 15.875C83.8625 15.6667 83.5367 15.5114 83.0973 15.4091L81.6428 15.0682C80.8435 14.8788 80.2564 14.5852 79.8814 14.1875C79.5102 13.786 79.3246 13.2841 79.3246 12.6818C79.3246 12.1894 79.4628 11.7538 79.7393 11.375C80.0196 10.9962 80.4003 10.6989 80.8814 10.483C81.3662 10.267 81.9155 10.1591 82.5291 10.1591C83.3928 10.1591 84.0708 10.3485 84.5632 10.7273C85.0594 11.1061 85.4117 11.6061 85.62 12.2273Z" fill="#B5B3AD"/>
<defs>
<clipPath id="clip0_29_27">
<rect width="26" height="26" fill="white"/>
</clipPath>
</defs>
</svg>
