<svg width="94" height="26" viewBox="0 0 94 26" fill="none" xmlns="http://www.w3.org/2000/svg">
<path d="M35.5185 20V8.36364H39.4503C40.3594 8.36364 41.1056 8.51894 41.6889 8.82955C42.2723 9.13636 42.7041 9.55871 42.9844 10.0966C43.2647 10.6345 43.4048 11.2462 43.4048 11.9318C43.4048 12.6174 43.2647 13.2254 42.9844 13.7557C42.7041 14.286 42.2741 14.7027 41.6946 15.0057C41.1151 15.3049 40.3745 15.4545 39.473 15.4545H36.2912V14.1818H39.4276C40.0488 14.1818 40.5488 14.0909 40.9276 13.9091C41.3101 13.7273 41.5866 13.4697 41.7571 13.1364C41.9313 12.7992 42.0185 12.3977 42.0185 11.9318C42.0185 11.4659 41.9313 11.0587 41.7571 10.7102C41.5829 10.3617 41.3045 10.0928 40.9219 9.90341C40.5393 9.71023 40.0336 9.61364 39.4048 9.61364H36.9276V20H35.5185ZM40.9957 14.7727L43.8594 20H42.223L39.4048 14.7727H40.9957ZM49.1364 20.1818C48.2955 20.1818 47.5701 19.9962 46.9602 19.625C46.3542 19.25 45.8864 18.7273 45.5568 18.0568C45.2311 17.3826 45.0682 16.5985 45.0682 15.7045C45.0682 14.8106 45.2311 14.0227 45.5568 13.3409C45.8864 12.6553 46.3447 12.1212 46.9318 11.7386C47.5227 11.3523 48.2121 11.1591 49 11.1591C49.4545 11.1591 49.9034 11.2348 50.3466 11.3864C50.7898 11.5379 51.1932 11.7841 51.5568 12.125C51.9205 12.4621 52.2102 12.9091 52.4261 13.4659C52.642 14.0227 52.75 14.7083 52.75 15.5227V16.0909H46.0227V14.9318H51.3864C51.3864 14.4394 51.2879 14 51.0909 13.6136C50.8977 13.2273 50.6212 12.9223 50.2614 12.6989C49.9053 12.4754 49.4848 12.3636 49 12.3636C48.4659 12.3636 48.0038 12.4962 47.6136 12.7614C47.2273 13.0227 46.9299 13.3636 46.7216 13.7841C46.5133 14.2045 46.4091 14.6553 46.4091 15.1364V15.9091C46.4091 16.5682 46.5227 17.1269 46.75 17.5852C46.9811 18.0398 47.3011 18.3864 47.7102 18.625C48.1193 18.8598 48.5947 18.9773 49.1364 18.9773C49.4886 18.9773 49.8068 18.928 50.0909 18.8295C50.3788 18.7273 50.6269 18.5758 50.8352 18.375C51.0436 18.1705 51.2045 17.9167 51.3182 17.6136L52.6136 17.9773C52.4773 18.4167 52.2481 18.803 51.9261 19.1364C51.6042 19.4659 51.2064 19.7235 50.733 19.9091C50.2595 20.0909 49.7273 20.1818 49.1364 20.1818ZM57.358 20.2045C56.8049 20.2045 56.303 20.1004 55.8523 19.892C55.4015 19.6799 55.0436 19.375 54.7784 18.9773C54.5133 18.5758 54.3807 18.0909 54.3807 17.5227C54.3807 17.0227 54.4792 16.6174 54.6761 16.3068C54.8731 15.9924 55.1364 15.7462 55.4659 15.5682C55.7955 15.3902 56.1591 15.2576 56.5568 15.1705C56.9583 15.0795 57.3617 15.0076 57.767 14.9545C58.2973 14.8864 58.7273 14.8352 59.0568 14.8011C59.3902 14.7633 59.6326 14.7008 59.7841 14.6136C59.9394 14.5265 60.017 14.375 60.017 14.1591V14.1136C60.017 13.553 59.8636 13.1174 59.5568 12.8068C59.2538 12.4962 58.7936 12.3409 58.1761 12.3409C57.536 12.3409 57.0341 12.4811 56.6705 12.7614C56.3068 13.0417 56.0511 13.3409 55.9034 13.6591L54.6307 13.2045C54.858 12.6742 55.161 12.2614 55.5398 11.9659C55.9223 11.6667 56.339 11.4583 56.7898 11.3409C57.2443 11.2197 57.6913 11.1591 58.1307 11.1591C58.411 11.1591 58.733 11.1932 59.0966 11.2614C59.464 11.3258 59.8182 11.4602 60.1591 11.6648C60.5038 11.8693 60.7898 12.178 61.017 12.5909C61.2443 13.0038 61.358 13.5568 61.358 14.25V20H60.017V18.8182H59.9489C59.858 19.0076 59.7064 19.2102 59.4943 19.4261C59.2822 19.642 59 19.8258 58.6477 19.9773C58.2955 20.1288 57.8655 20.2045 57.358 20.2045ZM57.5625 19C58.0928 19 58.5398 18.8958 58.9034 18.6875C59.2708 18.4792 59.5473 18.2102 59.733 17.8807C59.9223 17.5511 60.017 17.2045 60.017 16.8409V15.6136C59.9602 15.6818 59.8352 15.7443 59.642 15.8011C59.4527 15.8542 59.233 15.9015 58.983 15.9432C58.7367 15.9811 58.4962 16.0152 58.2614 16.0455C58.0303 16.072 57.8428 16.0947 57.6989 16.1136C57.3504 16.1591 57.0246 16.233 56.7216 16.3352C56.4223 16.4337 56.1799 16.5833 55.9943 16.7841C55.8125 16.9811 55.7216 17.25 55.7216 17.5909C55.7216 18.0568 55.8939 18.4091 56.2386 18.6477C56.5871 18.8826 57.0284 19 57.5625 19ZM67.3509 20.1818C66.5327 20.1818 65.8281 19.9886 65.2372 19.6023C64.6463 19.2159 64.1918 18.6837 63.8736 18.0057C63.5554 17.3277 63.3963 16.553 63.3963 15.6818C63.3963 14.7955 63.5592 14.0133 63.8849 13.3352C64.2145 12.6534 64.6728 12.1212 65.2599 11.7386C65.8509 11.3523 66.5402 11.1591 67.3281 11.1591C67.9418 11.1591 68.4948 11.2727 68.9872 11.5C69.4796 11.7273 69.883 12.0455 70.1974 12.4545C70.5118 12.8636 70.7069 13.3409 70.7827 13.8864H69.4418C69.3395 13.4886 69.1122 13.1364 68.7599 12.8295C68.4115 12.5189 67.9418 12.3636 67.3509 12.3636C66.8281 12.3636 66.3698 12.5 65.9759 12.7727C65.5857 13.0417 65.2808 13.4223 65.0611 13.9148C64.8452 14.4034 64.7372 14.9773 64.7372 15.6364C64.7372 16.3106 64.8433 16.8977 65.0554 17.3977C65.2713 17.8977 65.5743 18.286 65.9645 18.5625C66.3584 18.839 66.8205 18.9773 67.3509 18.9773C67.6993 18.9773 68.0156 18.9167 68.2997 18.7955C68.5838 18.6742 68.8243 18.5 69.0213 18.2727C69.2183 18.0455 69.3584 17.7727 69.4418 17.4545H70.7827C70.7069 17.9697 70.5194 18.4337 70.2202 18.8466C69.9247 19.2557 69.5327 19.5814 69.044 19.8239C68.5592 20.0625 67.9948 20.1818 67.3509 20.1818ZM76.5384 11.2727V12.4091H72.0156V11.2727H76.5384ZM73.3338 9.18182H74.6747V17.5C74.6747 17.8788 74.7296 18.1629 74.8395 18.3523C74.9531 18.5379 75.0971 18.6629 75.2713 18.7273C75.4493 18.7879 75.6368 18.8182 75.8338 18.8182C75.9815 18.8182 76.1027 18.8106 76.1974 18.7955C76.2921 18.7765 76.3679 18.7614 76.4247 18.75L76.6974 19.9545C76.6065 19.9886 76.4796 20.0227 76.3168 20.0568C76.1539 20.0947 75.9474 20.1136 75.6974 20.1136C75.3187 20.1136 74.9474 20.0322 74.5838 19.8693C74.224 19.7064 73.9247 19.4583 73.6861 19.125C73.4512 18.7917 73.3338 18.3712 73.3338 17.8636V9.18182ZM79.5327 20.0909C79.2524 20.0909 79.0118 19.9905 78.8111 19.7898C78.6103 19.589 78.5099 19.3485 78.5099 19.0682C78.5099 18.7879 78.6103 18.5473 78.8111 18.3466C79.0118 18.1458 79.2524 18.0455 79.5327 18.0455C79.813 18.0455 80.0535 18.1458 80.2543 18.3466C80.455 18.5473 80.5554 18.7879 80.5554 19.0682C80.5554 19.2538 80.508 19.4242 80.4134 19.5795C80.3224 19.7348 80.1993 19.8598 80.044 19.9545C79.8925 20.0455 79.7221 20.0909 79.5327 20.0909ZM82.9616 11.2727H84.3026V20.6364C84.3026 21.1742 84.2098 21.6402 84.0241 22.0341C83.8423 22.428 83.5658 22.733 83.1946 22.9489C82.8272 23.1648 82.3632 23.2727 81.8026 23.2727C81.7571 23.2727 81.7116 23.2727 81.6662 23.2727C81.6207 23.2727 81.5753 23.2727 81.5298 23.2727V22.0227C81.5753 22.0227 81.617 22.0227 81.6548 22.0227C81.6927 22.0227 81.7344 22.0227 81.7798 22.0227C82.1889 22.0227 82.4882 21.9015 82.6776 21.6591C82.867 21.4205 82.9616 21.0795 82.9616 20.6364V11.2727ZM83.6207 9.81818C83.3594 9.81818 83.134 9.72917 82.9446 9.55114C82.759 9.37311 82.6662 9.15909 82.6662 8.90909C82.6662 8.65909 82.759 8.44508 82.9446 8.26705C83.134 8.08902 83.3594 8 83.6207 8C83.8821 8 84.1056 8.08902 84.2912 8.26705C84.4806 8.44508 84.5753 8.65909 84.5753 8.90909C84.5753 9.15909 84.4806 9.37311 84.2912 9.55114C84.1056 9.72917 83.8821 9.81818 83.6207 9.81818ZM92.9403 13.2273L91.7358 13.5682C91.66 13.3674 91.5483 13.1723 91.4006 12.983C91.2566 12.7898 91.0597 12.6307 90.8097 12.5057C90.5597 12.3807 90.2396 12.3182 89.8494 12.3182C89.3153 12.3182 88.8703 12.4413 88.5142 12.6875C88.1619 12.9299 87.9858 13.2386 87.9858 13.6136C87.9858 13.947 88.107 14.2102 88.3494 14.4034C88.5919 14.5966 88.9706 14.7576 89.4858 14.8864L90.7812 15.2045C91.5616 15.3939 92.143 15.6837 92.5256 16.0739C92.9081 16.4602 93.0994 16.9583 93.0994 17.5682C93.0994 18.0682 92.9555 18.5152 92.6676 18.9091C92.3835 19.303 91.9858 19.6136 91.4744 19.8409C90.9631 20.0682 90.3684 20.1818 89.6903 20.1818C88.8002 20.1818 88.0634 19.9886 87.4801 19.6023C86.8968 19.2159 86.5275 18.6515 86.3722 17.9091L87.6449 17.5909C87.7661 18.0606 87.9953 18.4129 88.3324 18.6477C88.6733 18.8826 89.1184 19 89.6676 19C90.2926 19 90.7888 18.8674 91.1562 18.6023C91.5275 18.3333 91.7131 18.0114 91.7131 17.6364C91.7131 17.3333 91.607 17.0795 91.3949 16.875C91.1828 16.6667 90.857 16.5114 90.4176 16.4091L88.9631 16.0682C88.1638 15.8788 87.5767 15.5852 87.2017 15.1875C86.8305 14.786 86.6449 14.2841 86.6449 13.6818C86.6449 13.1894 86.7831 12.7538 87.0597 12.375C87.34 11.9962 87.7206 11.6989 88.2017 11.483C88.6866 11.267 89.2358 11.1591 89.8494 11.1591C90.7131 11.1591 91.3911 11.3485 91.8835 11.7273C92.3797 12.1061 92.732 12.6061 92.9403 13.2273Z" fill="#B5B3AD"/>
<path d="M15.1766 13.0196C15.1766 14.185 14.2022 15.13 13 15.13C11.798 15.13 10.8234 14.185 10.8234 13.0196C10.8234 11.854 11.798 10.9091 13 10.9091C14.2022 10.9091 15.1766 11.854 15.1766 13.0196Z" fill="#B5B3AD"/>
<path fill-rule="evenodd" clip-rule="evenodd" d="M20.0691 16.9376C20.5287 18.7486 21.1065 22.1069 19.0697 23.2455C17.0424 24.3791 14.4043 22.2069 13.0113 20.903C11.6223 22.1939 8.91012 24.3568 6.87507 23.2146C4.8486 22.0772 5.47352 18.7746 5.94336 16.9522C4.053 16.4317 0.8125 15.3104 0.8125 13.0196C0.8125 10.7352 4.04963 9.51535 5.9288 8.99527C5.45722 7.16284 4.86359 3.9074 6.89266 2.7725C8.93531 1.63053 11.6391 3.74197 13.045 5.06009C14.447 3.74855 17.0597 1.6233 19.0874 2.76136C21.1214 3.90301 20.5917 7.2163 20.1218 9.04922C21.9434 9.57044 25.1875 10.7638 25.1875 13.0196C25.1875 15.2884 21.9296 16.4188 20.0691 16.9376ZM19.8382 10.0206C19.5297 10.9675 19.1133 11.9744 18.6039 13.0145C19.0901 14.0302 19.4903 15.0241 19.7902 15.9649C21.1542 15.5815 24.1463 14.7052 24.1463 13.0196C24.1463 11.3181 21.275 10.4336 19.8382 10.0206ZM18.5656 3.63513C17.0528 2.78606 14.8055 4.81845 13.7701 5.78427C14.457 6.51268 15.1434 7.35946 15.8133 8.29977C16.9917 8.40109 18.1049 8.56684 19.1146 8.79312C19.4452 7.49661 20.0852 4.48801 18.5656 3.63513ZM7.41294 3.64723C5.89991 4.49313 6.59147 7.39814 6.9384 8.74795C7.93678 8.53377 9.04199 8.37972 10.2232 8.28685C10.8975 7.36678 11.6038 6.52105 12.3156 5.78037C11.4362 4.9556 8.93303 2.79744 7.41294 3.64723ZM1.85371 13.0196C1.85371 14.7274 4.82793 15.5973 6.22297 15.9798C6.52804 15.0178 6.92815 14.0121 7.411 12.995C6.92189 11.9628 6.51606 10.941 6.20819 9.96775C4.878 10.337 1.85371 11.3107 1.85371 13.0196ZM7.39676 22.3409C8.91597 23.1935 11.2732 21.117 12.2817 20.1824C11.5736 19.4451 10.8738 18.6058 10.2052 17.691C9.05889 17.5879 7.96148 17.4225 6.95264 17.2009C6.57414 18.6707 5.87918 21.4892 7.39676 22.3409ZM16.5582 16.5936C17.3359 16.4985 18.0811 16.3719 18.7807 16.217C18.5707 15.5643 18.3089 14.8817 18.0005 14.1819C17.5536 15.0042 17.0738 15.81 16.5582 16.5936ZM13.0116 19.4609C13.4919 18.9565 13.9729 18.3931 14.4461 17.782C13.4863 17.826 12.5249 17.8262 11.5651 17.7826C12.0387 18.3881 12.5239 18.9506 13.0116 19.4609ZM8.00841 14.1827C7.70517 14.88 7.44573 15.5656 7.23387 16.2277C7.92933 16.3785 8.671 16.5019 9.44369 16.5955C8.92661 15.8135 8.44764 15.0081 8.00841 14.1827ZM9.46587 9.37162C8.66767 9.45799 7.91477 9.57507 7.21952 9.72181C7.43473 10.3955 7.69988 11.0959 8.00959 11.8082C8.45487 10.9742 8.94116 10.161 9.46587 9.37162ZM13.0405 6.50691C12.547 7.02325 12.0547 7.59436 11.5739 8.20861C12.5391 8.17188 13.5063 8.1718 14.4714 8.21356C13.9968 7.5881 13.5175 7.01618 13.0405 6.50691ZM18.0104 11.8445C18.3363 11.1244 18.6109 10.4279 18.829 9.76552C18.1222 9.60911 17.3592 9.48318 16.5553 9.38966C17.0747 10.1882 17.5621 11.0065 18.0104 11.8445ZM15.2322 9.26729C13.7557 9.165 12.2701 9.16614 10.7931 9.25893C9.95386 10.4475 9.20676 11.6976 8.56188 12.9953C9.20367 14.2903 9.94533 15.5379 10.7806 16.7247C12.2586 16.833 13.7457 16.8333 15.2237 16.724C16.0518 15.5374 16.7923 14.293 17.449 13.0097C16.8001 11.7153 16.0546 10.4652 15.2322 9.26729ZM18.5496 22.3709C20.0692 21.5211 19.3928 18.5029 19.0608 17.1904C18.0496 17.4167 16.9514 17.585 15.8017 17.6897C15.1319 18.6143 14.438 19.4552 13.7413 20.1829C14.7627 21.1377 17.0447 23.2124 18.5496 22.3709Z" fill="#B5B3AD"/>
</svg>
