<svg width="120" height="24" viewBox="0 0 120 24" fill="none" xmlns="http://www.w3.org/2000/svg">
<path d="M40.4368 9.27273V10.4091H35.9141V9.27273H40.4368ZM37.2322 7.18182H38.5732V15.5C38.5732 15.8788 38.6281 16.1629 38.7379 16.3523C38.8516 16.5379 38.9955 16.6629 39.1697 16.7273C39.3478 16.7879 39.5353 16.8182 39.7322 16.8182C39.88 16.8182 40.0012 16.8106 40.0959 16.7955C40.1906 16.7765 40.2663 16.7614 40.3232 16.75L40.5959 17.9545C40.505 17.9886 40.3781 18.0227 40.2152 18.0568C40.0523 18.0947 39.8459 18.1136 39.5959 18.1136C39.2171 18.1136 38.8459 18.0322 38.4822 17.8693C38.1224 17.7064 37.8232 17.4583 37.5845 17.125C37.3497 16.7917 37.2322 16.3712 37.2322 15.8636V7.18182ZM45.022 18.2045C44.469 18.2045 43.9671 18.1004 43.5163 17.892C43.0656 17.6799 42.7076 17.375 42.4425 16.9773C42.1773 16.5758 42.0447 16.0909 42.0447 15.5227C42.0447 15.0227 42.1432 14.6174 42.3402 14.3068C42.5372 13.9924 42.8004 13.7462 43.13 13.5682C43.4595 13.3902 43.8232 13.2576 44.2209 13.1705C44.6224 13.0795 45.0258 13.0076 45.4311 12.9545C45.9614 12.8864 46.3913 12.8352 46.7209 12.8011C47.0542 12.7633 47.2966 12.7008 47.4482 12.6136C47.6035 12.5265 47.6811 12.375 47.6811 12.1591V12.1136C47.6811 11.553 47.5277 11.1174 47.2209 10.8068C46.9179 10.4962 46.4576 10.3409 45.8402 10.3409C45.2 10.3409 44.6982 10.4811 44.3345 10.7614C43.9709 11.0417 43.7152 11.3409 43.5675 11.6591L42.2947 11.2045C42.522 10.6742 42.825 10.2614 43.2038 9.96591C43.5864 9.66667 44.0031 9.45833 44.4538 9.34091C44.9084 9.2197 45.3554 9.15909 45.7947 9.15909C46.075 9.15909 46.397 9.19318 46.7607 9.26136C47.1281 9.32576 47.4822 9.46023 47.8232 9.66477C48.1679 9.86932 48.4538 10.178 48.6811 10.5909C48.9084 11.0038 49.022 11.5568 49.022 12.25V18H47.6811V16.8182H47.6129C47.522 17.0076 47.3705 17.2102 47.1584 17.4261C46.9463 17.642 46.6641 17.8258 46.3118 17.9773C45.9595 18.1288 45.5296 18.2045 45.022 18.2045ZM45.2266 17C45.7569 17 46.2038 16.8958 46.5675 16.6875C46.9349 16.4792 47.2114 16.2102 47.397 15.8807C47.5864 15.5511 47.6811 15.2045 47.6811 14.8409V13.6136C47.6243 13.6818 47.4993 13.7443 47.3061 13.8011C47.1167 13.8542 46.897 13.9015 46.647 13.9432C46.4008 13.9811 46.1603 14.0152 45.9254 14.0455C45.6944 14.072 45.5069 14.0947 45.3629 14.1136C45.0144 14.1591 44.6887 14.233 44.3857 14.3352C44.0864 14.4337 43.844 14.5833 43.6584 14.7841C43.4766 14.9811 43.3857 15.25 43.3857 15.5909C43.3857 16.0568 43.558 16.4091 43.9027 16.6477C44.2512 16.8826 44.6925 17 45.2266 17ZM51.4695 18V9.27273H52.8104V18H51.4695ZM52.1513 7.81818C51.8899 7.81818 51.6645 7.72917 51.4751 7.55114C51.2895 7.37311 51.1967 7.15909 51.1967 6.90909C51.1967 6.65909 51.2895 6.44508 51.4751 6.26705C51.6645 6.08902 51.8899 6 52.1513 6C52.4126 6 52.6361 6.08902 52.8217 6.26705C53.0111 6.44508 53.1058 6.65909 53.1058 6.90909C53.1058 7.15909 53.0111 7.37311 52.8217 7.55114C52.6361 7.72917 52.4126 7.81818 52.1513 7.81818ZM56.6072 6.36364V18H55.2663V6.36364H56.6072ZM61.0405 18L58.3814 9.27273H59.7905L61.6768 15.9545H61.7678L63.6314 9.27273H65.0632L66.9041 15.9318H66.995L68.8814 9.27273H70.2905L67.6314 18H66.3132L64.4041 11.2955H64.2678L62.3587 18H61.0405ZM72.0632 18V9.27273H73.4041V18H72.0632ZM72.745 7.81818C72.4837 7.81818 72.2583 7.72917 72.0689 7.55114C71.8833 7.37311 71.7905 7.15909 71.7905 6.90909C71.7905 6.65909 71.8833 6.44508 72.0689 6.26705C72.2583 6.08902 72.4837 6 72.745 6C73.0064 6 73.2299 6.08902 73.4155 6.26705C73.6049 6.44508 73.6996 6.65909 73.6996 6.90909C73.6996 7.15909 73.6049 7.37311 73.4155 7.55114C73.2299 7.72917 73.0064 7.81818 72.745 7.81818ZM77.201 12.75V18H75.8601V9.27273H77.1555V10.6364H77.2692C77.4737 10.1932 77.7843 9.83712 78.201 9.56818C78.6177 9.29545 79.1555 9.15909 79.8146 9.15909C80.4055 9.15909 80.9226 9.2803 81.3658 9.52273C81.8089 9.76136 82.1536 10.125 82.3999 10.6136C82.6461 11.0985 82.7692 11.7121 82.7692 12.4545V18H81.4283V12.5455C81.4283 11.8598 81.2502 11.3258 80.8942 10.9432C80.5381 10.5568 80.0495 10.3636 79.4283 10.3636C79.0002 10.3636 78.6177 10.4564 78.2805 10.642C77.9472 10.8277 77.6839 11.0985 77.4908 11.4545C77.2976 11.8106 77.201 12.2424 77.201 12.75ZM88.5149 18.1818C87.7876 18.1818 87.1456 17.9981 86.5888 17.6307C86.032 17.2595 85.5964 16.7367 85.282 16.0625C84.9676 15.3845 84.8104 14.5833 84.8104 13.6591C84.8104 12.7424 84.9676 11.947 85.282 11.2727C85.5964 10.5985 86.0339 10.0777 86.5945 9.71023C87.1551 9.3428 87.8028 9.15909 88.5376 9.15909C89.1058 9.15909 89.5547 9.25379 89.8842 9.44318C90.2176 9.62879 90.4714 9.84091 90.6456 10.0795C90.8236 10.3144 90.9619 10.5076 91.0604 10.6591H91.174V6.36364H92.5149V18H91.2195V16.6591H91.0604C90.9619 16.8182 90.8217 17.0189 90.6399 17.2614C90.4581 17.5 90.1986 17.714 89.8615 17.9034C89.5244 18.089 89.0755 18.1818 88.5149 18.1818ZM88.6967 16.9773C89.2346 16.9773 89.6892 16.8371 90.0604 16.5568C90.4316 16.2727 90.7138 15.8807 90.907 15.3807C91.1001 14.8769 91.1967 14.2955 91.1967 13.6364C91.1967 12.9848 91.102 12.4148 90.9126 11.9261C90.7232 11.4337 90.4429 11.0511 90.0717 10.7784C89.7005 10.5019 89.2422 10.3636 88.6967 10.3636C88.1286 10.3636 87.6551 10.5095 87.2763 10.8011C86.9013 11.089 86.6191 11.4811 86.4297 11.9773C86.2441 12.4697 86.1513 13.0227 86.1513 13.6364C86.1513 14.2576 86.246 14.822 86.4354 15.3295C86.6286 15.8333 86.9126 16.2348 87.2876 16.5341C87.6664 16.8295 88.1361 16.9773 88.6967 16.9773ZM98.7024 18.1818C97.8842 18.1818 97.1797 17.9886 96.5888 17.6023C95.9979 17.2159 95.5433 16.6837 95.2251 16.0057C94.907 15.3277 94.7479 14.553 94.7479 13.6818C94.7479 12.7955 94.9107 12.0133 95.2365 11.3352C95.5661 10.6534 96.0244 10.1212 96.6115 9.73864C97.2024 9.35227 97.8918 9.15909 98.6797 9.15909C99.2933 9.15909 99.8464 9.27273 100.339 9.5C100.831 9.72727 101.235 10.0455 101.549 10.4545C101.863 10.8636 102.058 11.3409 102.134 11.8864H100.793C100.691 11.4886 100.464 11.1364 100.112 10.8295C99.763 10.5189 99.2933 10.3636 98.7024 10.3636C98.1797 10.3636 97.7214 10.5 97.3274 10.7727C96.9373 11.0417 96.6323 11.4223 96.4126 11.9148C96.1967 12.4034 96.0888 12.9773 96.0888 13.6364C96.0888 14.3106 96.1948 14.8977 96.407 15.3977C96.6229 15.8977 96.9259 16.286 97.3161 16.5625C97.71 16.839 98.1721 16.9773 98.7024 16.9773C99.0509 16.9773 99.3672 16.9167 99.6513 16.7955C99.9354 16.6742 100.176 16.5 100.373 16.2727C100.57 16.0455 100.71 15.7727 100.793 15.4545H102.134C102.058 15.9697 101.871 16.4337 101.572 16.8466C101.276 17.2557 100.884 17.5814 100.396 17.8239C99.9107 18.0625 99.3464 18.1818 98.7024 18.1818ZM110.276 11.2273L109.072 11.5682C108.996 11.3674 108.884 11.1723 108.737 10.983C108.593 10.7898 108.396 10.6307 108.146 10.5057C107.896 10.3807 107.576 10.3182 107.185 10.3182C106.651 10.3182 106.206 10.4413 105.85 10.6875C105.498 10.9299 105.322 11.2386 105.322 11.6136C105.322 11.947 105.443 12.2102 105.685 12.4034C105.928 12.5966 106.307 12.7576 106.822 12.8864L108.117 13.2045C108.897 13.3939 109.479 13.6837 109.862 14.0739C110.244 14.4602 110.435 14.9583 110.435 15.5682C110.435 16.0682 110.291 16.5152 110.004 16.9091C109.719 17.303 109.322 17.6136 108.81 17.8409C108.299 18.0682 107.704 18.1818 107.026 18.1818C106.136 18.1818 105.399 17.9886 104.816 17.6023C104.233 17.2159 103.863 16.6515 103.708 15.9091L104.981 15.5909C105.102 16.0606 105.331 16.4129 105.668 16.6477C106.009 16.8826 106.454 17 107.004 17C107.629 17 108.125 16.8674 108.492 16.6023C108.863 16.3333 109.049 16.0114 109.049 15.6364C109.049 15.3333 108.943 15.0795 108.731 14.875C108.519 14.6667 108.193 14.5114 107.754 14.4091L106.299 14.0682C105.5 13.8788 104.913 13.5852 104.538 13.1875C104.166 12.786 103.981 12.2841 103.981 11.6818C103.981 11.1894 104.119 10.7538 104.396 10.375C104.676 9.99621 105.057 9.69886 105.538 9.48295C106.022 9.26705 106.572 9.15909 107.185 9.15909C108.049 9.15909 108.727 9.34848 109.219 9.72727C109.716 10.1061 110.068 10.6061 110.276 11.2273ZM118.636 11.2273L117.431 11.5682C117.355 11.3674 117.244 11.1723 117.096 10.983C116.952 10.7898 116.755 10.6307 116.505 10.5057C116.255 10.3807 115.935 10.3182 115.545 10.3182C115.011 10.3182 114.566 10.4413 114.21 10.6875C113.857 10.9299 113.681 11.2386 113.681 11.6136C113.681 11.947 113.802 12.2102 114.045 12.4034C114.287 12.5966 114.666 12.7576 115.181 12.8864L116.477 13.2045C117.257 13.3939 117.838 13.6837 118.221 14.0739C118.603 14.4602 118.795 14.9583 118.795 15.5682C118.795 16.0682 118.651 16.5152 118.363 16.9091C118.079 17.303 117.681 17.6136 117.17 17.8409C116.658 18.0682 116.064 18.1818 115.386 18.1818C114.496 18.1818 113.759 17.9886 113.175 17.6023C112.592 17.2159 112.223 16.6515 112.067 15.9091L113.34 15.5909C113.461 16.0606 113.691 16.4129 114.028 16.6477C114.369 16.8826 114.814 17 115.363 17C115.988 17 116.484 16.8674 116.852 16.6023C117.223 16.3333 117.408 16.0114 117.408 15.6364C117.408 15.3333 117.302 15.0795 117.09 14.875C116.878 14.6667 116.552 14.5114 116.113 14.4091L114.658 14.0682C113.859 13.8788 113.272 13.5852 112.897 13.1875C112.526 12.786 112.34 12.2841 112.34 11.6818C112.34 11.1894 112.478 10.7538 112.755 10.375C113.035 9.99621 113.416 9.69886 113.897 9.48295C114.382 9.26705 114.931 9.15909 115.545 9.15909C116.408 9.15909 117.086 9.34848 117.579 9.72727C118.075 10.1061 118.427 10.6061 118.636 11.2273Z" fill="#B5B3AD"/>
<path fill-rule="evenodd" clip-rule="evenodd" d="M13.3969 3C9.82443 3 7.5916 5.06622 6.69847 9.19866C8.03817 7.13244 9.60115 6.35761 11.3874 6.87416C12.4066 7.1686 13.135 8.02436 13.9413 8.9708C15.2547 10.513 16.775 12.298 20.0954 12.298C23.6679 12.298 25.9008 10.2318 26.7939 6.09933C25.4542 8.16555 23.8912 8.94038 22.105 8.42382C21.0858 8.12939 20.3574 7.27363 19.5511 6.32719C18.2377 4.78498 16.7174 3 13.3969 3ZM6.69847 12.298C3.12595 12.298 0.89313 14.3642 0 18.4966C1.33969 16.4304 2.90267 15.6556 4.68893 16.1721C5.70809 16.4672 6.43649 17.3223 7.24279 18.2688C8.55618 19.811 10.0765 21.596 13.3969 21.596C16.9695 21.596 19.2023 19.5297 20.0954 15.3973C18.7557 17.4635 17.1927 18.2384 15.4065 17.7218C14.3873 17.4274 13.6589 16.5716 12.8526 15.6252C11.5392 14.083 10.0189 12.298 6.69847 12.298Z" fill="#B5B3AD"/>
</svg>
